# Blender v2.79 (sub 0) OBJ File: ''
# www.blender.org
v 2.988542 -0.053914 -15.241791
v 2.988542 -0.053914 15.241791
v -2.988542 -0.053914 15.241788
v -2.988541 -0.053914 -15.241796
v 2.988543 0.053914 -15.241784
v 2.988540 0.053914 15.241799
v -2.988543 0.053914 15.241784
v -2.988542 0.053914 -15.241791
v 0.996181 -0.053914 -15.241793
v -0.996180 -0.053914 -15.241795
v 0.996180 -0.053914 15.241790
v -0.996181 -0.053914 15.241789
v 0.996181 0.053914 -15.241786
v -0.996180 0.053914 -15.241789
v 0.996179 0.053914 15.241795
v -0.996182 0.053914 15.241789
vt 0.649101 0.000000
vt 0.649101 1.000000
vt 0.486826 1.000000
vt 0.486826 0.000000
vt 0.324551 0.000000
vt 0.486826 0.000000
vt 0.486825 0.999999
vt 0.324550 1.000000
vt 0.982435 1.000000
vt 0.973652 1.000000
vt 0.973651 0.000000
vt 0.982434 0.000000
vt 0.991217 1.000000
vt 0.982435 1.000000
vt 0.982435 0.000000
vt 0.991217 0.000000
vt 0.000000 0.000000
vt 0.162275 0.000000
vt 0.162275 1.000000
vt 0.000000 1.000000
vt 0.973651 0.000000
vt 0.973651 1.000000
vt 0.811376 1.000000
vt 0.811376 0.000000
vn 0.0000 -1.0000 0.0000
vn 0.0000 1.0000 -0.0000
vn 1.0000 0.0000 0.0000
vn -1.0000 -0.0000 -0.0000
s off
f 10/1/1 12/2/1 3/3/1 4/4/1
f 14/5/2 8/6/2 7/7/2 16/8/2
f 1/9/3 5/10/3 6/11/3 2/12/3
f 3/13/4 7/14/4 8/15/4 4/16/4
f 5/17/2 13/18/2 15/19/2 6/20/2
f 13/18/2 14/5/2 16/8/2 15/19/2
f 1/21/1 2/22/1 11/23/1 9/24/1
f 9/24/1 11/23/1 12/2/1 10/1/1
