# Blender v2.79 (sub 0) OBJ File: ''
# www.blender.org
mtllib retro_palm.mtl
o Cube.001
v 0.473031 13.830342 -0.348551
v 0.473031 13.755116 -0.383701
v 0.473031 13.064473 1.290523
v 0.473031 12.989246 1.255373
v 2.546033 13.830342 -0.348551
v 2.546033 13.755116 -0.383701
v 2.546033 13.064473 1.290523
v 2.546033 12.989246 1.255373
v 0.689721 12.477345 2.150239
v 0.689721 12.529640 2.189967
v 2.329343 12.529640 2.189967
v 2.329343 12.477345 2.150239
v 1.266088 11.857853 2.723639
v 1.266088 11.910148 2.763367
v 1.752976 11.910148 2.763367
v 1.752976 11.857853 2.723639
v 0.798350 13.919559 -1.794408
v 0.798350 13.836671 -1.799307
v 2.220714 13.836671 -1.799307
v 2.220714 13.919559 -1.794408
v 1.448620 13.699492 -2.502920
v 1.448620 13.616603 -2.507820
v 1.570444 13.616603 -2.507820
v 1.570444 13.699492 -2.502920
v 1.365171 0.184282 -1.365172
v 1.365171 0.184282 1.365172
v -1.365172 0.184282 1.365171
v -1.365172 0.184282 -1.365172
v 0.788501 1.465448 -0.788500
v 0.788500 1.465447 0.788501
v -0.788501 1.465447 0.788500
v -0.788501 1.465448 -0.788500
v 0.689727 3.559484 -0.689727
v 0.689726 3.559484 0.689728
v -0.689727 3.559484 -0.689727
v -0.689727 3.559484 0.689727
v 0.575405 5.211849 -0.499201
v 0.506204 5.389822 0.575730
v -0.506205 5.283385 -0.575730
v -0.575405 5.461358 0.499201
v 0.663601 8.194000 -0.957973
v 0.601334 8.354141 0.009255
v -0.309636 8.258368 -1.026835
v -0.371903 8.418509 -0.059607
v 1.007731 11.096865 -1.814882
v 0.961831 11.214911 -1.101895
v 0.290314 11.144312 -1.865643
v 0.244415 11.262359 -1.152657
v 1.455694 13.282486 -2.593153
v 1.429385 13.350148 -2.184482
v 1.044484 13.309682 -2.622248
v 1.018175 13.377345 -2.213577
v 3.321487 12.906044 -1.798093
v 3.263350 12.848163 -1.785274
v 4.458273 11.631855 -2.395823
v 4.400136 11.573975 -2.383004
v 2.618667 13.184504 -3.728338
v 2.560530 13.126622 -3.715519
v 3.755453 11.910315 -4.326067
v 3.697316 11.852433 -4.313249
v 4.912769 10.820251 -2.911108
v 4.966423 10.855244 -2.925595
v 4.410533 11.075488 -4.452305
v 4.356880 11.040496 -4.437818
v 4.985546 10.125073 -3.656888
v 5.039199 10.160066 -3.671376
v 4.874127 10.225468 -4.124735
v 4.820473 10.190475 -4.110247
v 1.992428 13.528586 -1.573740
v 1.957655 13.453206 -1.571953
v 1.475424 13.644267 -2.896366
v 1.510197 13.719647 -2.898153
v 1.077568 13.654346 -1.920852
v 1.042795 13.578966 -1.919065
v 1.001492 13.595330 -2.032500
v 1.036265 13.670710 -2.034286
v 1.566352 13.830341 -3.933134
v 1.574209 13.755116 -3.898873
v 1.199980 13.064471 -5.530737
v 1.207837 12.989245 -5.496476
v -0.454200 13.830341 -3.469768
v -0.446343 13.755116 -3.435507
v -0.820573 13.064471 -5.067370
v -0.812716 12.989245 -5.033110
v 0.796605 12.477344 -6.320265
v 0.787725 12.529638 -6.358988
v -0.810413 12.529638 -5.992493
v -0.801533 12.477344 -5.953770
v 0.106652 11.857851 -6.750325
v 0.097772 11.910146 -6.789048
v -0.376797 11.910146 -6.680217
v -0.367917 11.857851 -6.641494
v 1.572448 13.919559 -2.451143
v 1.573543 13.836671 -2.446368
v 0.187167 13.836671 -2.128435
v 0.186072 13.919559 -2.133210
v 1.097001 13.699492 -1.615206
v 1.098096 13.616604 -1.610430
v 0.979354 13.616604 -1.583200
v 0.978259 13.699492 -1.587975
v -1.199283 13.707102 -3.267539
v -1.158790 13.635606 -3.255576
v -2.777773 12.826997 -3.184450
v -2.737280 12.755501 -3.172487
v -1.262604 14.014126 -1.218377
v -1.222111 13.942630 -1.206413
v -2.841094 13.134021 -1.135288
v -2.800601 13.062525 -1.123325
v -3.598893 12.214634 -2.898863
v -3.642288 12.263170 -2.907476
v -3.692371 12.506008 -1.286710
v -3.648975 12.457472 -1.278097
v -4.143224 11.645453 -2.247331
v -4.186619 11.693990 -2.255944
v -4.201491 11.766101 -1.774655
v -4.158095 11.717565 -1.766042
v 0.225692 13.953463 -2.931314
v 0.236583 13.872105 -2.918788
v 0.193136 14.082766 -1.512781
v 0.182245 14.164123 -1.525307
v 0.928096 13.886783 -2.241783
v 0.938988 13.805426 -2.229257
v 0.935266 13.823469 -2.108834
v 0.924375 13.904825 -2.121360
v 2.348285 13.830341 -0.190899
v 2.322669 13.755116 -0.214968
v 3.542794 13.064472 0.931470
v 3.517178 12.989245 0.907401
v 3.767790 13.830341 -1.701642
v 3.742174 13.755116 -1.725711
v 4.962299 13.064472 -0.579273
v 4.936683 12.989245 -0.603342
v 4.317710 12.477344 1.362251
v 4.346663 12.529638 1.389455
v 5.469408 12.529638 0.194546
v 5.440454 12.477344 0.167342
v 5.130259 11.857852 1.334851
v 5.159211 11.910147 1.362056
v 5.492612 11.910147 1.007226
v 5.463660 11.857852 0.980021
v 1.517353 13.919559 -1.418044
v 1.513782 13.836670 -1.421399
v 2.487758 13.836670 -2.457976
v 2.491328 13.919559 -2.454621
v 1.446287 13.699492 -2.377101
v 1.442717 13.616603 -2.380456
v 1.526137 13.616603 -2.469238
v 1.529707 13.699492 -2.465883
vn -1.0000 0.0000 0.0000
vn 0.0000 -0.8680 -0.4965
vn 1.0000 0.0000 0.0000
vn 0.0000 -0.9983 -0.0575
vn 0.0000 0.9060 0.4233
vn 0.0000 -0.9060 -0.4233
vn 0.0000 -0.6793 -0.7339
vn -0.9789 -0.1034 0.1761
vn 0.9789 -0.1034 0.1761
vn 0.0000 0.8595 0.5111
vn 0.0000 -0.6049 0.7963
vn -0.8218 -0.3447 0.4537
vn 0.8218 -0.3447 0.4537
vn 0.0000 0.6793 0.7339
vn 0.0000 -0.9550 0.2966
vn 0.9743 0.0553 -0.2182
vn -0.9743 0.0553 -0.2182
vn 0.0000 0.9981 0.0616
vn 0.0000 0.0590 -0.9983
vn 0.7299 0.0403 -0.6824
vn 0.0000 0.9550 -0.2966
vn -0.7299 0.0403 -0.6824
vn 0.0000 -1.0000 0.0000
vn -0.9989 0.0471 -0.0000
vn 0.9119 0.4105 0.0000
vn -0.0000 0.4105 0.9119
vn -0.9119 0.4105 -0.0000
vn 0.0000 0.4105 -0.9119
vn -0.0286 0.0808 0.9963
vn 0.0000 0.0471 -0.9989
vn -0.0000 0.0471 0.9989
vn 0.9989 0.0471 0.0000
vn -0.0569 0.1892 0.9803
vn 0.9962 0.0847 0.0219
vn -0.9961 0.0811 -0.0340
vn 0.0335 0.0891 -0.9955
vn -0.9799 0.1769 -0.0924
vn 0.9975 -0.0191 0.0674
vn -0.9958 0.0547 -0.0732
vn 0.0596 -0.1535 -0.9863
vn -0.0326 0.4576 0.8885
vn 0.0486 -0.2881 -0.9564
vn -0.0415 0.3663 0.9296
vn 0.9924 -0.0942 0.0795
vn 0.0763 0.9845 -0.1581
vn 0.9814 -0.1687 0.0911
vn -0.9499 0.2926 -0.1096
vn 0.0437 -0.3431 -0.9383
vn 0.3390 -0.1343 0.9311
vn -0.7496 -0.6367 0.1811
vn -0.3390 0.1343 -0.9311
vn -0.4175 -0.9084 0.0210
vn 0.7002 0.6971 -0.1544
vn -0.7002 -0.6971 0.1544
vn -0.8855 -0.3798 0.2676
vn 0.4463 -0.2880 0.8473
vn -0.2175 -0.0250 -0.9757
vn 0.7590 0.6238 -0.1864
vn 0.4665 -0.8355 -0.2904
vn 0.5444 -0.5864 0.5998
vn -0.0128 -0.3656 -0.9307
vn 0.8855 0.3798 -0.2676
vn -0.0950 -0.9896 -0.1082
vn -0.4989 0.2571 -0.8276
vn 0.1618 -0.0046 0.9868
vn 0.4210 0.9068 -0.0225
vn -0.8424 0.3972 0.3640
vn -0.8233 0.3696 -0.4308
vn 0.0950 0.9896 0.1082
vn -0.3284 0.1735 0.9285
vn 0.9747 -0.0000 -0.2235
vn 0.1110 -0.8680 0.4840
vn -0.9747 0.0000 0.2235
vn 0.0129 -0.9983 0.0561
vn -0.0946 0.9060 -0.4126
vn 0.0946 -0.9060 0.4126
vn 0.1640 -0.6793 0.7153
vn 0.9148 -0.1034 -0.3905
vn -0.9935 -0.1034 0.0472
vn -0.1142 0.8595 -0.4982
vn -0.1780 -0.6049 -0.7761
vn 0.6996 -0.3447 -0.6259
vn -0.9024 -0.3447 -0.2585
vn -0.1640 0.6793 -0.7153
vn -0.0663 -0.9550 -0.2891
vn -0.9009 0.0553 0.4305
vn 0.9985 0.0553 -0.0051
vn -0.0138 0.9981 -0.0600
vn 0.2231 0.0590 0.9730
vn -0.5589 0.0403 0.8283
vn 0.0663 0.9550 0.2891
vn 0.8639 0.0403 0.5020
vn 0.0305 -0.1481 -0.9885
vn 0.5579 -0.8180 0.1398
vn -0.0305 0.1481 0.9885
vn 0.1297 -0.9800 0.1508
vn -0.4877 0.8611 -0.1441
vn 0.4877 -0.8611 0.1441
vn 0.7808 -0.6138 0.1161
vn -0.1382 -0.2604 -0.9556
vn -0.1980 0.0296 0.9798
vn -0.5718 0.8086 -0.1388
vn -0.7500 -0.6572 0.0753
vn -0.4022 -0.4961 -0.7695
vn -0.4524 -0.2527 0.8553
vn -0.7808 0.6138 -0.1161
vn -0.2265 -0.9643 0.1375
vn 0.1838 0.2154 0.9591
vn 0.2433 -0.0732 -0.9672
vn -0.1337 0.9795 -0.1509
vn 0.9909 0.1343 0.0105
vn 0.6551 0.1999 0.7287
vn 0.2265 0.9643 -0.1375
vn 0.6997 -0.0163 -0.7143
vn -0.6848 0.0000 0.7288
vn -0.3619 -0.8680 -0.3400
vn 0.6848 -0.0000 -0.7288
vn -0.0419 -0.9983 -0.0394
vn 0.3085 0.9060 0.2899
vn -0.3085 -0.9060 -0.2899
vn -0.5348 -0.6793 -0.5025
vn -0.5420 -0.1034 0.8340
vn 0.7987 -0.1034 -0.5928
vn 0.3725 0.8595 0.3500
vn 0.5803 -0.6049 0.5453
vn -0.2321 -0.3447 0.9096
vn 0.8934 -0.3447 -0.2882
vn 0.5348 0.6793 0.5025
vn 0.2162 -0.9550 0.2031
vn 0.5081 0.0553 -0.8595
vn -0.8262 0.0553 0.5606
vn 0.0449 0.9981 0.0422
vn -0.7275 0.0590 -0.6836
vn 0.0025 0.0403 -0.9992
vn -0.2162 0.9550 -0.2031
vn -0.9971 0.0403 0.0646
usemtl Material
s off
f 1//1 2//1 4//1 3//1
f 4//2 8//2 12//2 9//2
f 7//3 8//3 6//3 5//3
f 6//4 2//4 18//4 19//4
f 3//5 7//5 5//5 1//5
f 8//6 4//6 2//6 6//6
f 9//7 12//7 16//7 13//7
f 3//8 4//8 9//8 10//8
f 8//9 7//9 11//9 12//9
f 7//10 3//10 10//10 11//10
f 14//11 13//11 16//11 15//11
f 10//12 9//12 13//12 14//12
f 12//13 11//13 15//13 16//13
f 11//14 10//14 14//14 15//14
f 19//15 18//15 22//15 23//15
f 5//16 6//16 19//16 20//16
f 2//17 1//17 17//17 18//17
f 1//18 5//18 20//18 17//18
f 24//19 23//19 22//19 21//19
f 20//20 19//20 23//20 24//20
f 17//21 20//21 24//21 21//21
f 18//22 17//22 21//22 22//22
f 25//23 26//23 27//23 28//23
f 32//24 31//24 36//24 35//24
f 25//25 29//25 30//25 26//25
f 26//26 30//26 31//26 27//26
f 27//27 31//27 32//27 28//27
f 29//28 25//28 28//28 32//28
f 36//29 34//29 38//29 40//29
f 29//30 32//30 35//30 33//30
f 31//31 30//31 34//31 36//31
f 30//32 29//32 33//32 34//32
f 40//33 38//33 42//33 44//33
f 34//34 33//34 37//34 38//34
f 35//35 36//35 40//35 39//35
f 33//36 35//36 39//36 37//36
f 43//37 44//37 48//37 47//37
f 38//38 37//38 41//38 42//38
f 39//39 40//39 44//39 43//39
f 37//40 39//40 43//40 41//40
f 48//41 46//41 50//41 52//41
f 41//42 43//42 47//42 45//42
f 44//43 42//43 46//43 48//43
f 42//44 41//44 45//44 46//44
f 49//45 51//45 52//45 50//45
f 46//46 45//46 49//46 50//46
f 47//47 48//47 52//47 51//47
f 45//48 47//48 51//48 49//48
f 53//49 54//49 56//49 55//49
f 56//50 60//50 64//50 61//50
f 59//51 60//51 58//51 57//51
f 58//52 54//52 70//52 71//52
f 55//53 59//53 57//53 53//53
f 60//54 56//54 54//54 58//54
f 61//55 64//55 68//55 65//55
f 55//56 56//56 61//56 62//56
f 60//57 59//57 63//57 64//57
f 59//58 55//58 62//58 63//58
f 66//59 65//59 68//59 67//59
f 62//60 61//60 65//60 66//60
f 64//61 63//61 67//61 68//61
f 63//62 62//62 66//62 67//62
f 71//63 70//63 74//63 75//63
f 57//64 58//64 71//64 72//64
f 54//65 53//65 69//65 70//65
f 53//66 57//66 72//66 69//66
f 76//67 75//67 74//67 73//67
f 72//68 71//68 75//68 76//68
f 69//69 72//69 76//69 73//69
f 70//70 69//70 73//70 74//70
f 77//71 78//71 80//71 79//71
f 80//72 84//72 88//72 85//72
f 83//73 84//73 82//73 81//73
f 82//74 78//74 94//74 95//74
f 79//75 83//75 81//75 77//75
f 84//76 80//76 78//76 82//76
f 85//77 88//77 92//77 89//77
f 79//78 80//78 85//78 86//78
f 84//79 83//79 87//79 88//79
f 83//80 79//80 86//80 87//80
f 90//81 89//81 92//81 91//81
f 86//82 85//82 89//82 90//82
f 88//83 87//83 91//83 92//83
f 87//84 86//84 90//84 91//84
f 95//85 94//85 98//85 99//85
f 81//86 82//86 95//86 96//86
f 78//87 77//87 93//87 94//87
f 77//88 81//88 96//88 93//88
f 100//89 99//89 98//89 97//89
f 96//90 95//90 99//90 100//90
f 93//91 96//91 100//91 97//91
f 94//92 93//92 97//92 98//92
f 101//93 102//93 104//93 103//93
f 104//94 108//94 112//94 109//94
f 107//95 108//95 106//95 105//95
f 106//96 102//96 118//96 119//96
f 103//97 107//97 105//97 101//97
f 108//98 104//98 102//98 106//98
f 109//99 112//99 116//99 113//99
f 103//100 104//100 109//100 110//100
f 108//101 107//101 111//101 112//101
f 107//102 103//102 110//102 111//102
f 114//103 113//103 116//103 115//103
f 110//104 109//104 113//104 114//104
f 112//105 111//105 115//105 116//105
f 111//106 110//106 114//106 115//106
f 119//107 118//107 122//107 123//107
f 105//108 106//108 119//108 120//108
f 102//109 101//109 117//109 118//109
f 101//110 105//110 120//110 117//110
f 124//111 123//111 122//111 121//111
f 120//112 119//112 123//112 124//112
f 117//113 120//113 124//113 121//113
f 118//114 117//114 121//114 122//114
f 125//115 126//115 128//115 127//115
f 128//116 132//116 136//116 133//116
f 131//117 132//117 130//117 129//117
f 130//118 126//118 142//118 143//118
f 127//119 131//119 129//119 125//119
f 132//120 128//120 126//120 130//120
f 133//121 136//121 140//121 137//121
f 127//122 128//122 133//122 134//122
f 132//123 131//123 135//123 136//123
f 131//124 127//124 134//124 135//124
f 138//125 137//125 140//125 139//125
f 134//126 133//126 137//126 138//126
f 136//127 135//127 139//127 140//127
f 135//128 134//128 138//128 139//128
f 143//129 142//129 146//129 147//129
f 129//130 130//130 143//130 144//130
f 126//131 125//131 141//131 142//131
f 125//132 129//132 144//132 141//132
f 148//133 147//133 146//133 145//133
f 144//134 143//134 147//134 148//134
f 141//135 144//135 148//135 145//135
f 142//136 141//136 145//136 146//136
